Coordinates
version=1
nRows=11
nColumns=36
inDegrees=yes

Units are S.I. units (second, meters, Newtons, ...)
If the header above contains a line with 'inDegrees', this indicates whether rotational values are in degrees (yes) or radians (no).

endheader
time	pelvis_tilt	pelvis_list	pelvis_rotation	pelvis_tx	pelvis_ty	pelvis_tz	hip_flexion_r	hip_adduction_r	hip_rotation_r	knee_angle_r	knee_angle_r_beta	ankle_angle_r	subtalar_angle_r	mtp_angle_r	hip_flexion_l	hip_adduction_l	hip_rotation_l	knee_angle_l	knee_angle_l_beta	ankle_angle_l	subtalar_angle_l	mtp_angle_l	lumbar_extension	lumbar_bending	lumbar_rotation	arm_flex_r	arm_add_r	arm_rot_r	elbow_flex_r	pro_sup_r	arm_flex_l	arm_add_l	arm_rot_l	elbow_flex_l	pro_sup_l
      3.62500000	     -6.97761834	      1.04884685	      5.81646888	      0.31275690	      1.04858003	     -0.03652588	     22.58445283	     -7.22261505	     -8.05154990	     36.14746193	      0.63089223	     12.22064498	     -2.45600376	     -7.49999987	     21.21335602	     -6.86225789	    -13.53591554	     33.85246255	      0.59083693	     10.84233018	     14.97036216	     -7.49999987	    -14.36606425	      2.50205104	      3.97224144	     -2.08397360	    -13.96721770	    -11.63599819	     42.30153951	     78.41568492	    -12.56758503	     -7.99142065	      3.03385878	     41.32855546	     75.87563652
      3.62916670	     -6.84212000	      1.09920479	      5.57427014	      0.31076593	      1.04493148	     -0.03941293	     23.07504494	     -7.36815719	     -7.88261687	     37.69208667	      0.65785101	     15.27696786	     -2.07318277	     -7.49999987	     21.08194523	     -6.83470099	    -13.12551974	     34.67790424	      0.60524361	     14.13513139	     15.02208752	     -7.49999987	    -14.83821641	      2.45118155	      4.04281619	     -1.26930356	    -14.05875030	    -11.59328709	     42.52561952	     78.76926285	    -11.75095938	     -7.91301438	      3.36791721	     40.55204145	     76.18065528
      3.63333330	     -6.35818691	      1.11638846	      5.27567375	      0.30938937	      1.04084659	     -0.03779241	     23.05689034	     -7.34224242	     -7.90331101	     38.73837552	      0.67611220	     17.66363098	     -1.50176401	     -7.49999987	     20.56647625	     -6.79473147	    -12.74576385	     35.23790507	      0.61501747	     16.81951663	     15.04372372	     -7.49999987	    -15.71955479	      2.52122383	      4.38294788	     -0.33027166	    -14.20120002	    -11.43694480	     42.49748720	     80.08205253	    -10.56985526	     -7.89313680	      4.45445289	     39.51754661	     77.18911816
      3.63750000	     -5.95628968	      1.18011520	      4.93449241	      0.30713553	      1.02670892	     -0.03786935	     23.49454539	     -7.44413057	     -7.91838225	     40.41900243	      0.70544467	     20.17634240	     -1.06548883	     -7.49999987	     20.54438433	     -6.82073779	    -12.54404091	     36.51119512	      0.63724057	     19.55152859	     15.30499255	     -7.49999987	    -16.64007034	      2.45352799	      4.62179286	      0.59231216	    -14.28664229	    -11.36622392	     42.77883741	     80.19411609	     -9.75559890	     -8.00687538	      4.53053029	     39.69106351	     77.25853127
      3.64166670	     -5.45257227	      1.35731758	      4.75538892	      0.30295037	      1.02272288	     -0.03773434	     23.62329464	     -7.67743336	     -8.03959583	     41.61111637	      0.72625099	     22.33157414	     -0.75049438	     -7.49999987	     20.57174550	     -6.62005236	    -12.16354979	     37.70293913	      0.65804043	     21.87610871	     15.18387327	     -7.49999987	    -17.82158976	      2.26722806	      4.84430421	      1.64912774	    -14.37090050	    -11.23255367	     42.95058613	     80.05790718	     -8.85546884	     -7.70071343	      4.89593267	     39.12003074	     77.04188264
      3.64583330	     -4.86123301	      1.57371396	      4.57852875	      0.29973685	      1.01489022	     -0.03795798	     23.87116788	     -7.98016875	     -7.95694941	     43.12108453	      0.75260490	     24.43553936	     -0.58558547	     -7.49999987	     20.80964291	     -6.47172529	    -12.04088373	     39.39353804	      0.68754694	     24.18691756	     15.47711819	     -7.49999987	    -19.13069161	      1.99268061	      5.02780956	      2.80603000	    -14.41340216	    -11.17671465	     43.07940290	     80.27763239	     -7.68250167	     -7.55551138	      5.10713691	     38.67262422	     77.20191921
      3.65000000	     -4.48199565	      1.80537641	      4.46169989	      0.29828626	      0.99932590	     -0.03916781	     24.74608761	     -8.50506554	     -7.98498835	     45.48237579	      0.79381721	     26.61184761	     -0.51771765	     -7.49999987	     21.75725127	     -6.48488155	    -12.04759009	     42.17616721	      0.73611298	     26.48287803	     15.32500514	     -7.49999987	    -20.05944226	      1.70784449	      5.27826986	      3.60062495	    -14.47682054	    -11.20158394	     43.46938159	     80.23746425	     -6.73629316	     -7.53796824	      5.25049761	     38.72825654	     77.15540687
      3.65416670	     -4.49364876	      1.89535374	      4.43979802	      0.29569580	      0.98959013	     -0.03496092	     26.16409761	     -8.79571963	     -7.91879454	     48.10910699	      0.83966232	     28.76194132	     -0.57251776	     -7.49999987	     23.32994474	     -6.76572071	    -11.92690089	     45.16309853	      0.78824477	     28.50969500	     15.10502211	     -7.49999987	    -20.51215482	      1.53339510	      5.58608748	      4.09139398	    -14.38888682	    -11.56007183	     44.09387407	     80.34511916	     -5.68943131	     -7.70346824	      5.86505123	     38.52426714	     77.26091942
      3.65833330	     -4.37327709	      1.93578538	      4.34251251	      0.29513341	      0.98095440	     -0.03443630	     27.46169570	     -8.95636568	     -7.68834483	     50.88586868	      0.88812595	     30.73938018	     -0.59533708	     -7.49999987	     24.79999889	     -7.23340410	    -11.81829252	     48.29329038	      0.84287692	     30.17878895	     15.04459587	     -7.49999987	    -21.27346249	      1.30727970	      5.78793442	      4.80282067	    -14.30515632	    -11.71805066	     44.58388353	     80.54519181	     -4.76891432	     -7.83006596	      5.58382230	     38.78536738	     77.40221089
      3.66250000	     -4.23050346	      2.00757951	      4.36846198	      0.29238095	      0.97577224	     -0.03612625	     28.61990089	     -9.18447923	     -7.47871095	     53.34247128	      0.93100176	     32.14842312	     -0.75520783	     -7.49999987	     26.21095518	     -7.48418236	    -11.45309212	     51.14948628	      0.89272695	     31.22071114	     14.73287723	     -7.49999987	    -22.02634257	      1.09894206	      5.86238791	      5.49010755	    -14.21911247	    -11.91566890	     44.93199074	     79.80584837	     -3.50560890	     -7.89898736	      5.28333508	     38.75641305	     76.68121957
      3.66666670	     -4.56108082	      1.97293474	      4.42415549	      0.29320535	      0.95934424	     -0.03604274	     30.55488771	     -9.45463814	     -7.21079207	     56.45641687	      0.98535036	     33.61684497	     -0.98025520	     -7.49999987	     28.30446164	     -7.86175240	    -11.03405343	     54.40317486	      0.94951452	     32.54029683	     14.36320836	     -7.49999987	    -21.88602132	      1.08965724	      5.93306065	      5.83272704	    -14.20976319	    -12.19482440	     45.43697847	     80.01676972	     -2.69962666	     -8.11969130	      5.08624744	     38.94846017	     76.92286450
